<mxfile host="app.diagrams.net" agent="Mozilla/5.0 (Windows NT 10.0; Win64; x64) AppleWebKit/537.36 (KHTML, like Gecko) Chrome/127.0.0.0 Safari/537.36" version="24.7.5">
  <diagram name="Page-1" id="M_L8XkFe3Kb10k1MvjYV">
    <mxGraphModel dx="1050" dy="522" grid="1" gridSize="10" guides="1" tooltips="1" connect="1" arrows="1" fold="1" page="1" pageScale="1" pageWidth="850" pageHeight="1100" math="0" shadow="0">
      <root>
        <mxCell id="0" />
        <mxCell id="1" parent="0" />
        <mxCell id="griC_k0dpacwMw_8OlpP-13" value="" style="rounded=0;orthogonalLoop=1;jettySize=auto;html=1;entryX=0.25;entryY=0;entryDx=0;entryDy=0;exitX=0.25;exitY=0;exitDx=0;exitDy=0;" edge="1" parent="1" source="griC_k0dpacwMw_8OlpP-5">
          <mxGeometry relative="1" as="geometry">
            <mxPoint x="570" y="210" as="targetPoint" />
          </mxGeometry>
        </mxCell>
        <mxCell id="griC_k0dpacwMw_8OlpP-20" style="rounded=0;orthogonalLoop=1;jettySize=auto;html=1;" edge="1" parent="1" source="griC_k0dpacwMw_8OlpP-1">
          <mxGeometry relative="1" as="geometry">
            <mxPoint x="780" y="260" as="targetPoint" />
          </mxGeometry>
        </mxCell>
        <mxCell id="griC_k0dpacwMw_8OlpP-1" value="" style="pointerEvents=1;shadow=0;dashed=0;html=1;strokeColor=none;fillColor=#4495D1;labelPosition=center;verticalLabelPosition=bottom;verticalAlign=top;align=center;outlineConnect=0;shape=mxgraph.veeam.controller;" vertex="1" parent="1">
          <mxGeometry x="570" y="180" width="60" height="60" as="geometry" />
        </mxCell>
        <mxCell id="griC_k0dpacwMw_8OlpP-12" style="edgeStyle=orthogonalEdgeStyle;rounded=0;orthogonalLoop=1;jettySize=auto;html=1;entryX=0.5;entryY=1;entryDx=0;entryDy=0;" edge="1" parent="1">
          <mxGeometry relative="1" as="geometry">
            <mxPoint x="240" y="270" as="sourcePoint" />
            <mxPoint x="370" y="270" as="targetPoint" />
          </mxGeometry>
        </mxCell>
        <mxCell id="griC_k0dpacwMw_8OlpP-2" value="" style="fillColor=#c0f5a9;dashed=0;outlineConnect=0;strokeWidth=2;html=1;align=center;fontSize=8;verticalLabelPosition=bottom;verticalAlign=top;shape=mxgraph.eip.message_dispatcher;" vertex="1" parent="1">
          <mxGeometry x="170" y="250" width="70" height="55" as="geometry" />
        </mxCell>
        <mxCell id="griC_k0dpacwMw_8OlpP-21" style="rounded=0;orthogonalLoop=1;jettySize=auto;html=1;" edge="1" parent="1" source="griC_k0dpacwMw_8OlpP-3">
          <mxGeometry relative="1" as="geometry">
            <mxPoint x="780" y="260" as="targetPoint" />
          </mxGeometry>
        </mxCell>
        <mxCell id="griC_k0dpacwMw_8OlpP-3" value="" style="pointerEvents=1;shadow=0;dashed=0;html=1;strokeColor=none;fillColor=#4495D1;labelPosition=center;verticalLabelPosition=bottom;verticalAlign=top;align=center;outlineConnect=0;shape=mxgraph.veeam.controller;" vertex="1" parent="1">
          <mxGeometry x="570" y="300" width="60" height="60" as="geometry" />
        </mxCell>
        <mxCell id="griC_k0dpacwMw_8OlpP-5" value="Interceptor 1&lt;div style=&quot;font-size: 13px;&quot;&gt;&lt;br style=&quot;font-size: 13px;&quot;&gt;&lt;/div&gt;&lt;div style=&quot;font-size: 13px;&quot;&gt;Interceptor 2&lt;/div&gt;&lt;div style=&quot;font-size: 13px;&quot;&gt;&lt;br style=&quot;font-size: 13px;&quot;&gt;&lt;/div&gt;&lt;div style=&quot;font-size: 13px;&quot;&gt;Interceptor 3&lt;/div&gt;" style="rounded=0;whiteSpace=wrap;html=1;direction=south;fontSize=13;" vertex="1" parent="1">
          <mxGeometry x="370" y="217.5" width="95" height="120" as="geometry" />
        </mxCell>
        <mxCell id="griC_k0dpacwMw_8OlpP-6" value="Prehandler Interceptor" style="text;html=1;align=center;verticalAlign=middle;whiteSpace=wrap;rounded=0;fontStyle=1;fontSize=15;" vertex="1" parent="1">
          <mxGeometry x="310" y="180" width="162.5" height="30" as="geometry" />
        </mxCell>
        <mxCell id="griC_k0dpacwMw_8OlpP-7" value="Controller 1" style="text;html=1;align=center;verticalAlign=middle;whiteSpace=wrap;rounded=0;fontStyle=1;fontSize=15;" vertex="1" parent="1">
          <mxGeometry x="518.75" y="140" width="162.5" height="30" as="geometry" />
        </mxCell>
        <mxCell id="griC_k0dpacwMw_8OlpP-8" value="Controller 2" style="text;html=1;align=center;verticalAlign=middle;whiteSpace=wrap;rounded=0;fontStyle=1;fontSize=15;" vertex="1" parent="1">
          <mxGeometry x="518.75" y="262.5" width="162.5" height="30" as="geometry" />
        </mxCell>
        <mxCell id="griC_k0dpacwMw_8OlpP-9" value="" style="points=[[0.35,0,0],[0.98,0.51,0],[1,0.71,0],[0.67,1,0],[0,0.795,0],[0,0.65,0]];verticalLabelPosition=bottom;sketch=0;html=1;verticalAlign=top;aspect=fixed;align=center;pointerEvents=1;shape=mxgraph.cisco19.user;fillColor=#005073;strokeColor=none;" vertex="1" parent="1">
          <mxGeometry x="20" y="252.5" width="50" height="50" as="geometry" />
        </mxCell>
        <mxCell id="griC_k0dpacwMw_8OlpP-10" value="Dispatcher Servlet" style="text;html=1;align=center;verticalAlign=middle;whiteSpace=wrap;rounded=0;fontStyle=1;fontSize=15;" vertex="1" parent="1">
          <mxGeometry x="130" y="220" width="162.5" height="30" as="geometry" />
        </mxCell>
        <mxCell id="griC_k0dpacwMw_8OlpP-11" style="edgeStyle=orthogonalEdgeStyle;rounded=0;orthogonalLoop=1;jettySize=auto;html=1;entryX=0;entryY=0.5;entryDx=0;entryDy=0;entryPerimeter=0;" edge="1" parent="1" source="griC_k0dpacwMw_8OlpP-9" target="griC_k0dpacwMw_8OlpP-2">
          <mxGeometry relative="1" as="geometry" />
        </mxCell>
        <mxCell id="griC_k0dpacwMw_8OlpP-14" value="" style="rounded=0;orthogonalLoop=1;jettySize=auto;html=1;exitX=0.25;exitY=0;exitDx=0;exitDy=0;" edge="1" parent="1" target="griC_k0dpacwMw_8OlpP-3">
          <mxGeometry relative="1" as="geometry">
            <mxPoint x="465" y="305" as="sourcePoint" />
            <mxPoint x="570" y="267" as="targetPoint" />
          </mxGeometry>
        </mxCell>
        <mxCell id="griC_k0dpacwMw_8OlpP-27" style="edgeStyle=orthogonalEdgeStyle;rounded=0;orthogonalLoop=1;jettySize=auto;html=1;" edge="1" parent="1" source="griC_k0dpacwMw_8OlpP-15">
          <mxGeometry relative="1" as="geometry">
            <mxPoint x="420" y="465" as="targetPoint" />
          </mxGeometry>
        </mxCell>
        <mxCell id="griC_k0dpacwMw_8OlpP-15" value="Page" style="html=1;whiteSpace=wrap;strokeColor=none;fillColor=#0079D6;labelPosition=center;verticalLabelPosition=middle;verticalAlign=top;align=center;fontSize=12;outlineConnect=0;spacingTop=-6;fontColor=#FFFFFF;sketch=0;shape=mxgraph.sitemap.page;" vertex="1" parent="1">
          <mxGeometry x="510" y="430" width="88.75" height="70" as="geometry" />
        </mxCell>
        <mxCell id="griC_k0dpacwMw_8OlpP-16" value="Page" style="html=1;whiteSpace=wrap;strokeColor=none;fillColor=#0079D6;labelPosition=center;verticalLabelPosition=middle;verticalAlign=top;align=center;fontSize=12;outlineConnect=0;spacingTop=-6;fontColor=#FFFFFF;sketch=0;shape=mxgraph.sitemap.page;" vertex="1" parent="1">
          <mxGeometry x="550" y="450" width="80" height="70" as="geometry" />
        </mxCell>
        <mxCell id="griC_k0dpacwMw_8OlpP-17" value="Page" style="html=1;whiteSpace=wrap;strokeColor=none;fillColor=#0079D6;labelPosition=center;verticalLabelPosition=middle;verticalAlign=top;align=center;fontSize=12;outlineConnect=0;spacingTop=-6;fontColor=#FFFFFF;sketch=0;shape=mxgraph.sitemap.page;" vertex="1" parent="1">
          <mxGeometry x="598.75" y="470" width="80" height="70" as="geometry" />
        </mxCell>
        <mxCell id="griC_k0dpacwMw_8OlpP-22" style="edgeStyle=orthogonalEdgeStyle;rounded=0;orthogonalLoop=1;jettySize=auto;html=1;curved=1;exitX=1;exitY=0.5;exitDx=0;exitDy=0;" edge="1" parent="1" source="griC_k0dpacwMw_8OlpP-18" target="griC_k0dpacwMw_8OlpP-17">
          <mxGeometry relative="1" as="geometry">
            <mxPoint x="690" y="500" as="targetPoint" />
            <Array as="points">
              <mxPoint x="828" y="500" />
            </Array>
          </mxGeometry>
        </mxCell>
        <mxCell id="griC_k0dpacwMw_8OlpP-18" value="Interceptor 1&lt;div style=&quot;font-size: 13px;&quot;&gt;&lt;br style=&quot;font-size: 13px;&quot;&gt;&lt;/div&gt;&lt;div style=&quot;font-size: 13px;&quot;&gt;Interceptor 2&lt;/div&gt;&lt;div style=&quot;font-size: 13px;&quot;&gt;&lt;br style=&quot;font-size: 13px;&quot;&gt;&lt;/div&gt;&lt;div style=&quot;font-size: 13px;&quot;&gt;Interceptor 3&lt;/div&gt;" style="rounded=0;whiteSpace=wrap;html=1;direction=south;fontSize=13;" vertex="1" parent="1">
          <mxGeometry x="780.01" y="200" width="95" height="120" as="geometry" />
        </mxCell>
        <mxCell id="griC_k0dpacwMw_8OlpP-19" value="Posthandler Interceptor" style="text;html=1;align=center;verticalAlign=middle;whiteSpace=wrap;rounded=0;fontStyle=1;fontSize=15;" vertex="1" parent="1">
          <mxGeometry x="740.63" y="150" width="173.75" height="30" as="geometry" />
        </mxCell>
        <mxCell id="griC_k0dpacwMw_8OlpP-23" value="Interceptor 1&lt;div style=&quot;font-size: 13px;&quot;&gt;&lt;br style=&quot;font-size: 13px;&quot;&gt;&lt;/div&gt;&lt;div style=&quot;font-size: 13px;&quot;&gt;Interceptor 2&lt;/div&gt;&lt;div style=&quot;font-size: 13px;&quot;&gt;&lt;br style=&quot;font-size: 13px;&quot;&gt;&lt;/div&gt;&lt;div style=&quot;font-size: 13px;&quot;&gt;Interceptor 3&lt;/div&gt;" style="rounded=0;whiteSpace=wrap;html=1;direction=south;fontSize=13;" vertex="1" parent="1">
          <mxGeometry x="320" y="440" width="95" height="120" as="geometry" />
        </mxCell>
        <mxCell id="griC_k0dpacwMw_8OlpP-24" value="After Completion" style="text;html=1;align=center;verticalAlign=middle;whiteSpace=wrap;rounded=0;fontStyle=1;fontSize=15;" vertex="1" parent="1">
          <mxGeometry x="292.5" y="400" width="162.5" height="30" as="geometry" />
        </mxCell>
        <mxCell id="griC_k0dpacwMw_8OlpP-25" value="" style="points=[[0.35,0,0],[0.98,0.51,0],[1,0.71,0],[0.67,1,0],[0,0.795,0],[0,0.65,0]];verticalLabelPosition=bottom;sketch=0;html=1;verticalAlign=top;aspect=fixed;align=center;pointerEvents=1;shape=mxgraph.cisco19.user;fillColor=#005073;strokeColor=none;" vertex="1" parent="1">
          <mxGeometry x="20" y="480" width="40" height="40" as="geometry" />
        </mxCell>
        <mxCell id="griC_k0dpacwMw_8OlpP-26" style="edgeStyle=orthogonalEdgeStyle;rounded=0;orthogonalLoop=1;jettySize=auto;html=1;exitX=0.5;exitY=1;exitDx=0;exitDy=0;" edge="1" parent="1" source="griC_k0dpacwMw_8OlpP-23" target="griC_k0dpacwMw_8OlpP-25">
          <mxGeometry relative="1" as="geometry">
            <mxPoint x="180" y="288" as="sourcePoint" />
          </mxGeometry>
        </mxCell>
        <mxCell id="griC_k0dpacwMw_8OlpP-28" value="View" style="text;html=1;align=center;verticalAlign=middle;whiteSpace=wrap;rounded=0;fontStyle=1;fontSize=15;" vertex="1" parent="1">
          <mxGeometry x="590" y="410" width="162.5" height="30" as="geometry" />
        </mxCell>
        <mxCell id="griC_k0dpacwMw_8OlpP-29" value="Model" style="text;html=1;align=center;verticalAlign=middle;whiteSpace=wrap;rounded=0;fontStyle=1;fontSize=15;" vertex="1" parent="1">
          <mxGeometry x="752.5" y="440" width="162.5" height="30" as="geometry" />
        </mxCell>
        <mxCell id="griC_k0dpacwMw_8OlpP-31" style="edgeStyle=orthogonalEdgeStyle;rounded=0;orthogonalLoop=1;jettySize=auto;html=1;entryX=0.5;entryY=1;entryDx=0;entryDy=0;" edge="1" parent="1">
          <mxGeometry relative="1" as="geometry">
            <mxPoint x="370" y="292.5" as="sourcePoint" />
            <mxPoint x="240" y="292.5" as="targetPoint" />
          </mxGeometry>
        </mxCell>
        <mxCell id="griC_k0dpacwMw_8OlpP-33" value="&lt;b&gt;Validation pass (true)&lt;/b&gt;" style="text;html=1;align=center;verticalAlign=middle;whiteSpace=wrap;rounded=0;" vertex="1" parent="1">
          <mxGeometry x="472.5" y="252.5" width="77.5" height="30" as="geometry" />
        </mxCell>
        <mxCell id="griC_k0dpacwMw_8OlpP-34" value="Validation Failed (false)" style="text;html=1;align=center;verticalAlign=middle;whiteSpace=wrap;rounded=0;fontStyle=1" vertex="1" parent="1">
          <mxGeometry x="270" y="292.5" width="77.5" height="30" as="geometry" />
        </mxCell>
        <mxCell id="griC_k0dpacwMw_8OlpP-36" value="request" style="text;html=1;align=center;verticalAlign=middle;whiteSpace=wrap;rounded=0;fontStyle=1" vertex="1" parent="1">
          <mxGeometry x="280" y="245" width="77.5" height="30" as="geometry" />
        </mxCell>
        <mxCell id="griC_k0dpacwMw_8OlpP-37" value="response" style="text;html=1;align=center;verticalAlign=middle;whiteSpace=wrap;rounded=0;fontStyle=1" vertex="1" parent="1">
          <mxGeometry x="150" y="460" width="77.5" height="30" as="geometry" />
        </mxCell>
      </root>
    </mxGraphModel>
  </diagram>
</mxfile>
